<?xml version="1.0" encoding="UTF-8"?>
<svg xmlns="http://www.w3.org/2000/svg" xmlns:xlink="http://www.w3.org/1999/xlink" width="16pt" height="16pt" viewBox="0 0 16 16" version="1.1">
<g id="surface1">
<path style=" stroke:none;fill-rule:nonzero;fill:rgb(40%,20%,60%);fill-opacity:1;" d="M 8 0 C 3.582031 0 0 3.582031 0 8 C 0 12.417969 3.582031 16 8 16 C 12.417969 16 16 12.417969 16 8 C 16 3.582031 12.417969 0 8 0 Z M 3.554688 12.445312 C 2.347656 11.238281 1.746094 9.660156 1.726562 8.078125 L 7.921875 14.273438 C 6.339844 14.253906 4.761719 13.652344 3.554688 12.445312 Z M 9.390625 14.125 L 1.875 6.609375 C 2.507812 3.808594 5.007812 1.714844 8 1.714844 C 10.09375 1.714844 11.941406 2.742188 13.082031 4.3125 L 12.207031 5.054688 C 11.277344 3.726562 9.738281 2.855469 8 2.855469 C 5.765625 2.855469 3.863281 4.292969 3.15625 6.289062 L 9.710938 12.84375 C 11.355469 12.261719 12.617188 10.871094 13.011719 9.144531 L 10.285156 9.144531 L 10.285156 8 L 14.285156 8 C 14.285156 10.992188 12.191406 13.492188 9.390625 14.125 Z M 9.390625 14.125 "/>
</g>
</svg>
