<?xml version="1.0" encoding="utf-8"?>
<!-- Generator: Adobe Illustrator 21.1.0, SVG Export Plug-In . SVG Version: 6.00 Build 0)  -->
<svg version="1.1" id="Layer_1" xmlns="http://www.w3.org/2000/svg" xmlns:xlink="http://www.w3.org/1999/xlink" x="0px" y="0px"
	 viewBox="0 0 1000 1000" style="enable-background:new 0 0 1000 1000;" xml:space="preserve">
<style type="text/css">
	.st0{fill:#006ADD;}
	.st1{fill:#DDDDDD;}
	.st2{fill:#004889;}
	.st3{fill:#A3A29C;}
</style>
<g>
	<g>
		<path d="M183.4,241.8c11.5-3.3,25.8-8.3,36,1.8c10,10,12.5,25.4,12.3,39c-0.2,157.9-0.4,315.8-0.6,473.7c0,7-0.5,13.2-1.4,18.7
			c-0.9,5.5-2.2,9.9-3.9,13.1c-1.7,3.2-3.8,5.8-6.4,7.8c-2.6,2-5.4,3.4-8.3,4.3c-3,0.9-6.3,1-10,0.5c-3.7-0.6-7.3-1.3-10.8-2.2
			c-3.5-0.9-7.3-2.2-11.3-3.9c-34.2-14.9-67.3-31.6-99.6-50.3C65.9,736.2,54,725,45.7,712c-6.2-9.6-11.2-23.9-10.9-35.6
			c-0.2-106.2-0.3-212.3-0.5-318.5c0-3.5-0.3-7-1-10.4c-0.7-3.4-1.5-6.2-2.5-8.2c-1-2-2-3.8-3-5.4c-1-1.6-1.8-2.7-2.5-3.4
			c-0.6-0.3-0.9-0.4-1.5-0.6c50.3-34.6,103-63.8,159.2-87.9C183,241.9,183.2,241.8,183.4,241.8z M157.2,355.8
			c-0.4-8.8-3.8-12.2-10.3-10.1c-14.3,4.6-28.6,9.5-42.8,14.5c0,101.9,0,203.8,0,305.7c0,8,3.2,13.1,9.5,15.4
			c13,4.6,19.5,6.8,32.7,10.9c2.9,0.9,4.9,1.4,6,1.5c1.1,0.1,2.2-0.6,3.3-2.1c1.1-1.5,1.6-4.3,1.6-8.5
			C157.2,574,157.2,464.9,157.2,355.8z"/>
		<path d="M490.2,487.3c-44.4,46.2-88.8,92.3-135,136.7c0,74.5,0,149,0,223.4c-26.1-5-51.7-11-77.3-18.1c0-188,0-376,0-564
			c0-9.1-1-18.2-3.1-27.1c-2.1-8.9-4.1-15.4-5.9-19.7c-1.4-2.5-2-3.8-3.4-6.2c57.3-16.6,115.1-27.5,174.6-33
			c14.8-1.5,29.4,4,38,16.4c10.3,15,11.9,31.9,12.9,49.6C490.6,326,490.4,406.7,490.2,487.3z M355.2,490.5
			c19.3-19.3,38.4-38.8,57.4-58.3c-0.2-40-0.4-80-0.6-120.1c0-11.2-3.5-16.6-10.5-16c-15.5,1.3-30.9,2.9-46.4,4.8
			C355.2,364.1,355.2,427.3,355.2,490.5z"/>
		<path d="M707.5,539.2c14.9,95.4,30.1,190.6,46.1,285.8c-24,7-48,13.2-72.4,18.5c-13.4-78.7-26.4-157.4-39.3-236.1
			c-8.9,9.5-17.8,19.1-26.7,28.7c0,72.8,0,145.7,0,218.5c-26.2,3.1-52.4,5.2-78.7,6.3c-0.2-207.2-0.4-414.3-0.6-621.5
			c0-10.1-1-20.3-2.9-30.8c-1.9-10.5-4.1-18.4-6.4-23.8c-1.2-3.3-1.8-4.9-2.9-8.1c59.5,1.7,117.8,8.9,175.9,21.8
			c15.3,3.5,28.7,12.9,36.8,26.4c8.7,14.5,12.3,31.4,12.2,48.2c0,75.5,0,151,0,226.5C734.6,512.6,721,525.9,707.5,539.2z
			 M615.1,499.8c18.9-18.6,37.9-37.1,57.3-55.2c-0.2-42-0.4-84-0.6-126c0-10.9-3.7-16.8-11-17.7c-15.2-1.9-30.5-3.4-45.8-4.7
			C615.1,364,615.1,431.9,615.1,499.8z"/>
		<path d="M870.9,428.9c38,36.9,77.2,71.6,122.1,99.9c0,47.4,0,94.7,0,142.1c-0.2,13.9-4.8,27.4-13.4,38.3
			c-9.8,12.4-22.1,22.8-35.6,30.9c-47,27.8-95.6,51-146.7,70.3c0-53.8,0-107.6,0-161.4c24.8-4.2,49.5-8.8,74.1-13.9
			c0,18.7,0,37.3,0,56c14.3-4.6,28.5-9.5,42.7-14.5c3.2-1.2,5.5-3,7.1-5.4c1.6-2.4,2.4-6.1,2.4-11.2c0-29.3,0-58.6,0-87.9
			c-45.9-30.9-86.7-67.4-126.3-106c0-61.8,0-123.6,0-185.4c0-8.6-1-17.6-3.1-27.2c-2-9.6-4-17-5.9-22.3c-1.3-3.2-2-4.9-3.4-8.1
			c32.5,11.6,63.9,24.8,95,39.7c23.4,11.6,37.1,35.7,43.6,60.1c0-12.4,0-24.7,0-37.1c9.9,5.6,14.8,8.5,24.5,14.4
			c13.4,8.1,25.1,19.4,33.5,32.3c6,9.3,11.1,23.2,10.8,34.7c0,20.8,0,41.7,0,62.5c-22.8-7.4-45.7-14.1-68.8-20.4
			c0-13.5,0-20.2,0-33.6c0-7.8-3.1-12.9-9.5-15.2c-14.2-5.1-28.4-9.9-42.7-14.6C871.2,373.8,871.1,401.3,870.9,428.9z"/>
	</g>
</g>
<g>
	<g>
		<path class="st0" d="M170.4,212c11.5-3.3,25.8-8.3,36,1.8c10,10,12.5,25.4,12.3,39c-0.2,157.9-0.4,315.8-0.6,473.7
			c0,7-0.5,13.2-1.4,18.7c-0.9,5.5-2.2,9.9-3.9,13.1c-1.7,3.2-3.8,5.8-6.4,7.8c-2.6,2-5.4,3.4-8.3,4.3c-3,0.9-6.3,1-10,0.5
			c-3.7-0.6-7.3-1.3-10.8-2.2c-3.5-0.9-7.3-2.2-11.3-3.9c-34.2-14.9-67.3-31.6-99.6-50.3c-13.5-7.9-25.4-19.2-33.8-32.2
			c-6.2-9.6-11.2-23.9-10.9-35.6c-0.2-106.2-0.3-212.3-0.5-318.5c0-3.5-0.3-7-1-10.4c-0.7-3.4-1.5-6.2-2.5-8.2c-1-2-2-3.8-3-5.4
			c-1-1.6-1.8-2.7-2.5-3.4c-0.6-0.3-0.9-0.4-1.5-0.6c50.3-34.6,103-63.8,159.2-87.9C170.1,212.1,170.2,212.1,170.4,212z M144.2,326
			c-0.4-8.8-3.8-12.2-10.3-10.1c-14.3,4.6-28.6,9.5-42.8,14.5c0,101.9,0,203.8,0,305.7c0,8,3.2,13.1,9.5,15.4
			c13,4.6,19.5,6.8,32.7,10.9c2.9,0.9,4.9,1.4,6,1.5c1.1,0.1,2.2-0.6,3.3-2.1c1.1-1.5,1.6-4.3,1.6-8.5
			C144.2,544.2,144.2,435.1,144.2,326z"/>
		<path class="st0" d="M477.2,457.5c-44.4,46.2-88.8,92.3-135,136.7c0,74.5,0,149,0,223.4c-26.1-5-51.7-11-77.3-18.1
			c0-188,0-376,0-564c0-9.1-1-18.2-3.1-27.1c-2.1-8.9-4.1-15.4-5.9-19.7c-1.4-2.5-2-3.8-3.4-6.2c57.3-16.6,115.1-27.5,174.6-33
			c14.8-1.5,29.4,4,38,16.4c10.3,15,11.9,31.9,12.9,49.6C477.6,296.2,477.4,376.9,477.2,457.5z M342.2,460.7
			c19.3-19.3,38.4-38.8,57.4-58.3c-0.2-40-0.4-80-0.6-120.1c0-11.2-3.5-16.6-10.5-16c-15.5,1.3-30.9,2.9-46.4,4.8
			C342.2,334.3,342.2,397.5,342.2,460.7z"/>
		<path class="st1" d="M694.5,509.4c14.9,95.4,30.1,190.6,46.1,285.8c-24,7-48,13.2-72.4,18.5c-13.4-78.7-26.4-157.4-39.3-236.1
			c-8.9,9.5-17.8,19.1-26.7,28.7c0,72.8,0,145.7,0,218.5c-26.2,3.1-52.4,5.2-78.7,6.3c-0.2-207.2-0.4-414.3-0.6-621.5
			c0-10.1-1-20.3-2.9-30.8c-1.9-10.5-4.1-18.4-6.4-23.8c-1.2-3.3-1.8-4.9-2.9-8.1c59.5,1.7,117.8,8.9,175.9,21.8
			c15.3,3.5,28.7,12.9,36.8,26.4c8.7,14.5,12.3,31.4,12.2,48.2c0,75.5,0,151,0,226.5C721.7,482.9,708.1,496.1,694.5,509.4z
			 M602.2,470c18.9-18.6,37.9-37.1,57.3-55.2c-0.2-42-0.4-84-0.6-126c0-10.9-3.7-16.8-11-17.7c-15.2-1.9-30.5-3.4-45.8-4.7
			C602.2,334.2,602.2,402.1,602.2,470z"/>
		<path class="st1" d="M857.9,399.1c38,36.9,77.2,71.6,122.1,99.9c0,47.4,0,94.7,0,142.1c-0.2,13.9-4.8,27.4-13.4,38.3
			c-9.8,12.4-22.1,22.8-35.6,30.9c-47,27.8-95.6,51-146.7,70.3c0-53.8,0-107.6,0-161.4c24.8-4.2,49.5-8.8,74.1-13.9
			c0,18.7,0,37.3,0,56c14.3-4.6,28.5-9.5,42.7-14.5c3.2-1.2,5.5-3,7.1-5.4c1.6-2.4,2.4-6.1,2.4-11.2c0-29.3,0-58.6,0-87.9
			c-45.9-30.9-86.7-67.4-126.3-106c0-61.8,0-123.6,0-185.4c0-8.6-1-17.6-3.1-27.2c-2-9.6-4-17-5.9-22.3c-1.3-3.2-2-4.9-3.4-8.1
			c32.5,11.6,63.9,24.8,95,39.7c23.4,11.6,37.1,35.7,43.6,60.1c0-12.4,0-24.7,0-37.1c9.9,5.6,14.8,8.5,24.5,14.4
			c13.4,8.1,25.1,19.4,33.5,32.3c6,9.3,11.1,23.2,10.8,34.7c0,20.8,0,41.7,0,62.5c-22.8-7.4-45.7-14.1-68.8-20.4
			c0-13.5,0-20.2,0-33.6c0-7.8-3.1-12.9-9.5-15.2c-14.2-5.1-28.4-9.9-42.7-14.6C858.3,344,858.1,371.6,857.9,399.1z"/>
	</g>
</g>
<g>
	<path class="st2" d="M168.8,655.9c0,6.3-0.7,15.6-6.6,23.7c-5.9,8.2-14.7,12.8-24.1,12.8c0,0,0,0,0,0c-0.6,0-1.3,0-1.9-0.1
		c-3.3-0.2-6.9-1-12-2.6c-13.5-4.3-20.3-6.6-33.5-11.2c-16.8-5.9-26.8-20.8-26.8-39.8v-188c-6.1,1.5-12.1,3.1-17.8,4.6l0.3,194.2
		l0,0.3c-0.1,5.6,2.8,14.8,6.8,20.9c6.1,9.4,14.9,17.9,25,23.8c31.7,18.3,63.3,34.3,96.8,48.9c2.7,1.1,5.2,2,7.3,2.5
		c2.2,0.5,4.5,1,6.8,1.4c0.2-0.9,0.6-2.2,0.9-4c0.7-4.1,1-8.9,1-14.4l0.4-306c-7.6,1.4-15.1,2.8-22.5,4.2V655.9z"/>
	<path class="st2" d="M424.3,415.5l-7.4,7.6c-21.8,22.4-40.1,41-57.6,58.5L315,525.9V404.6c-8.6,1-17.1,2-25.5,3.1v374.5
		c8.5,2.1,17,4.2,25.5,6.1V585.8l8-7.6c42.4-40.7,82.9-82.4,127.1-128.5l0.1-55.7c-8.7,0.4-17.4,0.8-26,1.2L424.3,415.5z"/>
	<path class="st3" d="M684.2,428.6l-8.3,7.7c-20.8,19.4-41.3,39.4-56.8,54.7L575,534.5V393.5c-9.2-0.3-18.3-0.5-27.4-0.7l0.4,413.6
		c9-0.6,18-1.4,27-2.2V598.9l6.9-7.4c9.6-10.4,18.4-19.8,26.8-28.8l36-38.5l8.5,52c12.2,74.8,23.6,143.4,34.6,208.8
		c7.4-1.8,14.8-3.7,22.1-5.7C696.4,698,682.5,611.6,667.6,516l-2-13.1l9.4-9.3c11.3-11.1,22.4-22,33.3-32.3l0-57.4
		c-8.1-1-16.2-1.9-24.3-2.8L684.2,428.6z"/>
	<path class="st3" d="M809,419.9v8.2c30.7,29.5,70.3,65.4,114.9,95.5l11.4,7.7v101.6c0,10.3-2.2,18.5-6.6,25.3
		c-4.7,7.1-11.6,12.5-19.9,15.6l-0.2,0.1c-14.3,5.1-28.9,10-43.4,14.7l-33.9,11v-60c-7.4,1.4-14.9,2.8-22.3,4.1V745
		c37-15.7,72.4-33.6,107.5-54.3c11.5-7,21.1-15.3,28.5-24.7c4.9-6.2,7.6-14.2,7.8-22.6V515.7c-41.3-27.6-76.6-59.2-106.5-87.9
		C833.9,425,821.4,422.3,809,419.9z"/>
</g>
</svg>
